<svg width="100" height="100" viewBox="0 0 100 100" fill="none" xmlns="http://www.w3.org/2000/svg">
<g id="aiSpeedIcon 1">
<path id="Vector" d="M50 90C72.0914 90 90 72.0914 90 50C90 27.9086 72.0914 10 50 10C27.9086 10 10 27.9086 10 50C10 72.0914 27.9086 90 50 90Z" stroke="#B28427" stroke-width="5"/>
<path id="Vector_2" d="M50 23V65" stroke="#B28427" stroke-width="5"/>
<path id="Vector_3" d="M31 40C32.6569 40 34 38.6569 34 37C34 35.3431 32.6569 34 31 34C29.3431 34 28 35.3431 28 37C28 38.6569 29.3431 40 31 40Z" fill="#B28427"/>
<path id="Vector_4" d="M22 59C23.6569 59 25 57.6569 25 56C25 54.3431 23.6569 53 22 53C20.3431 53 19 54.3431 19 56C19 57.6569 20.3431 59 22 59Z" fill="#B28427"/>
<path id="Vector_5" d="M69 40C70.6569 40 72 38.6569 72 37C72 35.3431 70.6569 34 69 34C67.3431 34 66 35.3431 66 37C66 38.6569 67.3431 40 69 40Z" fill="#B28427"/>
<path id="Vector_6" d="M78 59C79.6569 59 81 57.6569 81 56C81 54.3431 79.6569 53 78 53C76.3431 53 75 54.3431 75 56C75 57.6569 76.3431 59 78 59Z" fill="#B28427"/>
<path id="Vector_7" d="M50 81C56.0751 81 61 76.0751 61 70C61 63.9249 56.0751 59 50 59C43.9249 59 39 63.9249 39 70C39 76.0751 43.9249 81 50 81Z" fill="#B28427"/>
<path id="Vector_8" d="M50 77C53.866 77 57 73.866 57 70C57 66.134 53.866 63 50 63C46.134 63 43 66.134 43 70C43 73.866 46.134 77 50 77Z" fill="#1B1C1D"/>
</g>
</svg>
