<svg width="443" height="448" viewBox="0 0 443 448" fill="none" xmlns="http://www.w3.org/2000/svg">
<g id="magnify 1" clip-path="url(#clip0_8_12)">
<path id="Vector" d="M257.121 405.996C293.837 405.996 329.049 391.246 355.011 364.991C380.973 338.736 395.558 303.126 395.558 265.996C395.558 228.866 380.973 193.256 355.011 167.001C329.049 140.746 293.837 125.996 257.121 125.996C220.405 125.996 185.193 140.746 159.231 167.001C133.269 193.256 118.683 228.866 118.683 265.996C118.683 303.126 133.269 338.736 159.231 364.991C185.193 391.246 220.405 405.996 257.121 405.996ZM385.757 372.312L478.593 466.196L455.087 489.968L362.25 396.084C329.25 423.358 287.148 436.762 244.65 433.526C202.151 430.289 162.509 410.659 133.92 378.694C105.332 346.73 89.9845 304.877 91.0522 261.791C92.1199 218.705 109.521 177.682 139.657 147.206C169.793 116.73 210.358 99.1326 252.963 98.0528C295.568 96.973 336.954 112.494 368.562 141.405C400.169 170.316 419.58 210.406 422.781 253.384C425.981 296.362 412.726 338.94 385.757 372.312Z" fill="#B28427"/>
</g>
<defs>
<clipPath id="clip0_8_12">
<rect width="443" height="448" fill="white"/>
</clipPath>
</defs>
</svg>
