<svg width="800" height="800" viewBox="0 0 800 800" fill="none" xmlns="http://www.w3.org/2000/svg">
<g id="shield 1">
<path id="Vector" d="M378.62 689.437C385.463 693.003 388.887 694.787 393.633 695.71C397.333 696.43 402.667 696.43 406.367 695.71C411.113 694.787 414.537 693.003 421.38 689.437C484.667 656.463 666.667 548.707 666.667 400.003V273.924C666.667 247.273 666.667 233.948 662.307 222.494C658.457 212.375 652.2 203.346 644.077 196.188C634.883 188.085 622.407 183.406 597.453 174.049L418.727 107.026C411.797 104.428 408.333 103.128 404.767 102.613C401.607 102.156 398.393 102.156 395.233 102.613C391.667 103.128 388.203 104.428 381.273 107.026L202.547 174.049C177.593 183.406 165.117 188.085 155.922 196.188C147.799 203.346 141.542 212.375 137.692 222.494C133.333 233.948 133.333 247.273 133.333 273.924V400.003C133.333 548.707 315.332 656.463 378.62 689.437Z" stroke="#B28427" stroke-width="66.6667" stroke-linecap="round" stroke-linejoin="round"/>
</g>
</svg>
